<?xml version="1.0" encoding="utf-8"?>
<svg width="26" height="26" viewBox="0 0 26 26" fill="none" xmlns="http://www.w3.org/2000/svg">
  <path d="M18.7134 10.7007C19.1004 10.3067 19.0947 9.67354 18.7007 9.28655C18.3067 8.89956 17.6735 8.90527 17.2866 9.29929L18.7134 10.7007ZM11.125 17L10.4116 17.7007C10.5996 17.8922 10.8567 18 11.125 18C11.3933 18 11.6504 17.8922 11.8384 17.7007L11.125 17ZM8.71345 13.1175C8.32646 12.7234 7.69332 12.7177 7.29929 13.1047C6.90527 13.4917 6.89956 14.1249 7.28655 14.5189L8.71345 13.1175ZM24 13C24 19.0751 19.0751 24 13 24V26C20.1797 26 26 20.1797 26 13H24ZM13 24C6.92487 24 2 19.0751 2 13H0C0 20.1797 5.8203 26 13 26V24ZM2 13C2 6.92487 6.92487 2 13 2V0C5.8203 0 0 5.8203 0 13H2ZM13 2C19.0751 2 24 6.92487 24 13H26C26 5.8203 20.1797 0 13 0V2ZM17.2866 9.29929L10.4116 16.2993L11.8384 17.7007L18.7134 10.7007L17.2866 9.29929ZM11.8384 16.2993L8.71345 13.1175L7.28655 14.5189L10.4116 17.7007L11.8384 16.2993Z" fill="url(#paint0_linear_1188_4289)" style="paint-order: fill;"/>
  <defs>
    <linearGradient id="paint0_linear_1188_4289" x1="25.5143" y1="-0.312501" x2="-5.03303" y2="6.28057" gradientUnits="userSpaceOnUse" spreadMethod="pad" gradientTransform="matrix(0.609673, 0.035022, 0.166203, 0.971167, 5.111147, 2.037254)">
      <stop style="stop-color: rgb(45, 156, 219);"/>
      <stop offset="0.648" style="stop-color: rgb(169, 76, 252);"/>
      <stop offset="1" style="stop-color: rgb(255, 75, 145);"/>
    </linearGradient>
  </defs>
</svg>